<svg width="28" height="28" viewBox="0 0 28 28" fill="none" xmlns="http://www.w3.org/2000/svg">
<g clip-path="url(#clip0_1434_4467)">
<path d="M27.074 11.3886H26V11.3333H14V16.6666H21.5353C20.436 19.7713 17.482 22 14 22C9.58199 22 5.99999 18.418 5.99999 14C5.99999 9.58196 9.58199 5.99996 14 5.99996C16.0393 5.99996 17.8947 6.76929 19.3073 8.02596L23.0787 4.25463C20.6973 2.03529 17.512 0.666626 14 0.666626C6.63666 0.666626 0.666656 6.63663 0.666656 14C0.666656 21.3633 6.63666 27.3333 14 27.3333C21.3633 27.3333 27.3333 21.3633 27.3333 14C27.3333 13.106 27.2413 12.2333 27.074 11.3886Z" fill="#FFC107"/>
<path d="M2.20401 7.79396L6.58468 11.0066C7.77001 8.07196 10.6407 5.99996 14 5.99996C16.0393 5.99996 17.8947 6.76929 19.3073 8.02596L23.0787 4.25463C20.6973 2.03529 17.512 0.666626 14 0.666626C8.87868 0.666626 4.43734 3.55796 2.20401 7.79396Z" fill="#FF3D00"/>
<path d="M14 27.3333C17.444 27.3333 20.5733 26.0153 22.9393 23.872L18.8127 20.38C17.429 21.4322 15.7383 22.0013 14 22C10.532 22 7.58735 19.7886 6.478 16.7026L2.13 20.0526C4.33667 24.3706 8.81801 27.3333 14 27.3333Z" fill="#4CAF50"/>
<path d="M27.074 11.3887H26V11.3334H14V16.6667H21.5353C21.0095 18.1443 20.0622 19.4355 18.8107 20.3807L18.8127 20.3794L22.9393 23.8714C22.6473 24.1367 27.3333 20.6667 27.3333 14C27.3333 13.106 27.2413 12.2334 27.074 11.3887Z" fill="#1976D2"/>
</g>
<defs>
<clipPath id="clip0_1434_4467">
<rect width="28" height="28" fill="white"/>
</clipPath>
</defs>
</svg>
